<?xml version="1.0" encoding="utf-8"?>
<!-- Generator: Adobe Illustrator 16.0.0, SVG Export Plug-In . SVG Version: 6.00 Build 0)  -->
<!DOCTYPE svg PUBLIC "-//W3C//DTD SVG 1.1//EN" "http://www.w3.org/Graphics/SVG/1.1/DTD/svg11.dtd">
<svg version="1.1" id="Layer_1" xmlns="http://www.w3.org/2000/svg" xmlns:xlink="http://www.w3.org/1999/xlink" x="0px" y="0px"
	 width="334px" height="328.344px" viewBox="0 0 334 328.344" enable-background="new 0 0 334 328.344" xml:space="preserve">
<ellipse fill="none" stroke="#000000" stroke-width="1.0147" stroke-linecap="round" stroke-dasharray="4.0589,4.0589" cx="148.115" cy="184.734" rx="133.435" ry="53.438"/>
<path fill="none" stroke="#000000" stroke-width="1.6" stroke-linecap="round" d="M281.258,184.734
	c0,73.536-59.61,133.146-133.141,133.146c-73.535,0-133.144-59.609-133.144-133.146c0-73.531,59.609-133.14,133.144-133.14
	C221.648,51.594,281.258,111.203,281.258,184.734z"/>
<line fill="none" stroke="#000000" stroke-width="1.6" x1="147.094" y1="184.648" x2="278.008" y2="184.648"/>
<polygon fill-rule="evenodd" clip-rule="evenodd" points="271.609,184.648 268.41,187.848 279.609,184.648 268.41,181.449 "/>
<polygon fill="none" stroke="#000000" stroke-width="0.8" points="271.609,184.648 268.41,187.848 279.609,184.648 268.41,181.449 
	"/>
<line fill="none" stroke="#000000" stroke-width="1.6" x1="147.902" y1="184.648" x2="147.902" y2="53.73"/>
<polygon fill-rule="evenodd" clip-rule="evenodd" points="147.902,60.133 151.102,63.332 147.902,52.133 144.703,63.332 "/>
<polygon fill="none" stroke="#000000" stroke-width="0.8" points="147.902,60.133 151.102,63.332 147.902,52.133 144.703,63.332 "/>
<polyline fill="none" stroke="#000000" stroke-width="1.6" points="191.539,122.422 191.539,226.667 148.711,185.457 "/>
<line fill="none" stroke="#000000" stroke-width="2.4" x1="148.711" y1="184.648" x2="190.73" y2="123.23"/>
<polygon fill-rule="evenodd" clip-rule="evenodd" points="185.313,131.152 186.563,137.824 192.086,121.25 178.641,132.402 "/>
<polygon fill="none" stroke="#000000" stroke-width="1.2" points="185.313,131.152 186.563,137.824 192.086,121.25 178.641,132.402 
	"/>
<path d="M125.227,148.793h10.406c0.176-1.27,0.265-2.328,0.265-3.172c0-3.531-1.226-5.297-3.671-5.297
	c-1.68,0-3.102,0.773-4.266,2.312C126.793,144.179,125.883,146.23,125.227,148.793z M124.336,154.699
	c0,0.73,0.047,1.367,0.141,1.906c0.093,0.543,0.253,1.106,0.484,1.688c0.238,0.574,0.613,1.023,1.125,1.343
	c0.508,0.313,1.148,0.469,1.922,0.469c0.906,0,1.75-0.254,2.531-0.765c0.781-0.508,1.422-1.11,1.922-1.797
	c0.5-0.696,0.957-1.532,1.375-2.5c0.426-0.977,0.734-1.801,0.922-2.469c0.195-0.664,0.375-1.348,0.531-2.047H124.82
	C124.547,151.57,124.387,152.961,124.336,154.699z M122.164,154.73c0-1.676,0.234-3.457,0.703-5.344
	c0.477-1.894,1.149-3.691,2.016-5.39c0.863-1.696,1.976-3.102,3.344-4.219c1.375-1.113,2.851-1.672,4.437-1.672
	c1.094,0,2.024,0.246,2.797,0.735c0.769,0.492,1.32,1.148,1.656,1.968c0.344,0.813,0.582,1.606,0.719,2.375
	c0.133,0.762,0.203,1.586,0.203,2.469c0,2.48-0.418,4.969-1.25,7.469c-0.824,2.5-2.062,4.652-3.719,6.453
	c-1.648,1.805-3.492,2.703-5.531,2.703c-1.906,0-3.281-0.711-4.125-2.141C122.578,158.711,122.164,156.91,122.164,154.73z"/>
<path d="M144.266,216.429c0.539-0.07,1.113-0.203,1.718-0.39c0.602-0.188,1.332-0.535,2.188-1.047
	c0.851-0.521,1.598-1.146,2.234-1.875c0.645-0.728,1.203-1.735,1.672-3.017c0.469-1.281,0.703-2.722,0.703-4.328
	c0-2.344-0.82-3.516-2.453-3.516c-0.855,0-1.625,0.368-2.312,1.094c-0.68,0.731-1.188,1.637-1.532,2.719L144.266,216.429z
	 M134.641,211.179c0-1.113,0.312-2.597,0.937-4.453c0.633-1.863,1.727-3.883,3.281-6.062h2.703c-0.886,1.011-1.453,1.679-1.703,2
	c-1.031,1.405-1.836,2.883-2.406,4.422c-0.562,1.543-0.844,2.781-0.844,3.718c0,1.586,0.516,2.871,1.547,3.86
	c1.039,0.979,2.274,1.569,3.703,1.765c1.426-6.8,2.219-10.398,2.375-10.797c0.594-1.582,1.493-2.852,2.704-3.813
	c1.207-0.969,2.46-1.452,3.765-1.452c1.332,0,2.317,0.515,2.953,1.547c0.645,1.022,0.969,2.336,0.969,3.937
	c0,1.75-0.266,3.353-0.797,4.797c-0.531,1.438-1.195,2.606-1.984,3.5c-0.782,0.888-1.696,1.642-2.735,2.267
	c-1.031,0.625-1.976,1.086-2.828,1.375c-0.855,0.28-1.672,0.468-2.453,0.562l-1.266,5.953h-2.359l1.25-5.953
	c-2.094-0.289-3.758-1.082-4.984-2.375C135.25,214.675,134.641,213.079,134.641,211.179z"/>
<path fill="none" stroke="#000000" stroke-width="1.6" stroke-linecap="round" d="M148.379,143.867
	c6.078,0.836,11.918,6.563,16.762,16.438"/>
<path fill="none" stroke="#000000" stroke-width="1.6" stroke-linecap="round" d="M181.094,184.328
	c-0.508,6.738-6.508,12.977-16.297,16.945"/>
<path d="M196.578,119.527V92.136c0-0.582,0.195-0.875,0.594-0.875c0.406,0,0.609,0.293,0.609,0.875v27.391
	c0,0.551-0.203,0.828-0.609,0.828C196.773,120.355,196.578,120.078,196.578,119.527z"/>
<path d="M204.469,107.246c0-1.114,0.219-2.367,0.656-3.766c0.445-1.406,0.988-2.707,1.625-3.906h1.953
	c-1.762,2.656-2.641,5.105-2.641,7.344c0,1.418,0.368,2.625,1.11,3.625c0.738,1,1.738,1.605,3,1.812l4.14-19.469h1.735l-4.141,19.5
	c1.582-0.32,2.961-1.046,4.141-2.171c2.082-2,3.125-4.586,3.125-7.766c0-0.758-0.121-1.719-0.36-2.875h1.954
	c0.062,1.043,0.093,1.609,0.093,1.703c0,3.18-0.742,5.859-2.218,8.047c-0.844,1.242-1.883,2.273-3.11,3.094
	c-1.23,0.812-2.547,1.312-3.953,1.5l-1.016,4.828h-1.734l1.016-4.828c-1.656-0.207-2.969-0.926-3.938-2.157
	C204.945,110.535,204.469,109.027,204.469,107.246z"/>
<path d="M223.41,119.39c0-0.386,0.098-0.715,0.297-0.984l9.281-12.781c-0.179-0.207-0.422-0.532-0.734-0.969
	c-0.305-0.438-0.492-0.695-0.563-0.781l-7.984-10.985c-0.199-0.238-0.297-0.566-0.297-0.984c0-0.219,0.024-0.399,0.078-0.547
	c0.051-0.144,0.11-0.219,0.172-0.219c0.094,0,0.203,0.09,0.328,0.266l9.578,13.234c0.207,0.274,0.313,0.602,0.313,0.985
	c0,0.386-0.106,0.715-0.313,0.984l-9.578,13.234c-0.148,0.207-0.258,0.313-0.328,0.313c-0.062,0-0.121-0.078-0.172-0.234
	C223.434,119.773,223.41,119.597,223.41,119.39z"/>
<path d="M136.777,42.754V15.363c0-0.582,0.196-0.875,0.594-0.875c0.406,0,0.609,0.293,0.609,0.875v27.391
	c0,0.55-0.203,0.828-0.609,0.828C136.973,43.582,136.777,43.304,136.777,42.754z"/>
<path d="M145.277,25.644c0,0.125,0.004,0.262,0.016,0.406c0.008,0.149,0.016,0.231,0.016,0.25v0.579
	c0,1.156,0.007,2.093,0.031,2.812c0.031,0.719,0.156,1.559,0.375,2.516c0.226,0.949,0.539,1.695,0.937,2.234
	c0.782,1,1.782,1.5,3,1.5c1.282,0,2.301-0.531,3.063-1.594c0.375-0.539,0.664-1.289,0.875-2.25c0.219-0.957,0.336-1.785,0.359-2.484
	c0.031-0.707,0.047-1.641,0.047-2.797V26.3c0-0.019,0.004-0.097,0.016-0.234c0.008-0.133,0.015-0.266,0.015-0.391
	c0-2.8-0.429-4.757-1.281-5.875c-0.742-1-1.773-1.5-3.094-1.5c-1.367,0-2.418,0.532-3.156,1.594
	C145.684,21.074,145.277,22.988,145.277,25.644z M143.355,27.66v-0.485c0-0.632,0.008-1.179,0.032-1.64
	c0.019-0.469,0.066-1.086,0.14-1.86c0.082-0.769,0.223-1.445,0.422-2.031c0.196-0.594,0.446-1.203,0.75-1.828
	c0.301-0.633,0.707-1.18,1.219-1.641c0.508-0.457,1.102-0.804,1.781-1.046c0.582-0.219,1.235-0.329,1.953-0.329
	c0.563,0,1.11,0.075,1.641,0.219c0.531,0.137,1.082,0.422,1.656,0.86c0.582,0.437,1.086,1.007,1.516,1.703
	c0.426,0.687,0.781,1.633,1.062,2.828c0.282,1.199,0.422,2.59,0.422,4.172c0,1.656-0.062,3.011-0.187,4.062
	c-0.117,1.055-0.391,2.09-0.828,3.11c-0.586,1.355-1.36,2.312-2.329,2.875c-0.968,0.562-1.953,0.843-2.953,0.843
	c-0.562,0-1.109-0.074-1.64-0.218c-0.524-0.137-1.074-0.422-1.657-0.86c-0.585-0.445-1.089-1.015-1.515-1.703
	c-0.43-0.687-0.781-1.633-1.063-2.844C143.496,30.629,143.355,29.234,143.355,27.66z"/>
<path d="M158.809,42.617c0-0.387,0.097-0.715,0.296-0.985l9.282-12.781c-0.18-0.207-0.422-0.531-0.735-0.969
	c-0.304-0.437-0.492-0.695-0.562-0.781l-7.985-10.984c-0.199-0.238-0.296-0.567-0.296-0.985c0-0.218,0.023-0.398,0.078-0.546
	c0.051-0.145,0.109-0.219,0.172-0.219c0.093,0,0.203,0.09,0.328,0.265l9.578,13.235c0.207,0.273,0.312,0.601,0.312,0.984
	c0,0.387-0.105,0.715-0.312,0.985l-9.578,13.234c-0.149,0.207-0.258,0.312-0.328,0.312c-0.063,0-0.121-0.078-0.172-0.234
	C158.832,43,158.809,42.824,158.809,42.617z"/>
<path d="M290.32,197.915v-27.391c0-0.582,0.196-0.875,0.594-0.875c0.406,0,0.609,0.293,0.609,0.875v27.391
	c0,0.551-0.203,0.828-0.609,0.828C290.516,198.743,290.32,198.465,290.32,197.915z"/>
<path d="M297.102,184.195c0-0.52,0.343-0.781,1.031-0.781h6.047v-6.032c0-0.695,0.258-1.046,0.781-1.046
	c0.5,0,0.75,0.339,0.75,1.015v6.063h6.062c0.676,0,1.016,0.261,1.016,0.781c0,0.5-0.32,0.75-0.953,0.75h-6.125v6.062
	c0,0.7-0.262,1.047-0.781,1.047c-0.5,0-0.75-0.336-0.75-1.015v-6.094h-6.032C297.449,184.945,297.102,184.695,297.102,184.195z"/>
<path d="M313.953,197.777c0-0.387,0.098-0.715,0.297-0.983l9.281-12.782c-0.179-0.207-0.422-0.531-0.734-0.968
	c-0.305-0.438-0.492-0.696-0.563-0.782l-7.984-10.984c-0.199-0.238-0.297-0.566-0.297-0.984c0-0.219,0.024-0.399,0.078-0.547
	c0.051-0.145,0.11-0.219,0.172-0.219c0.094,0,0.203,0.09,0.328,0.266l9.578,13.234c0.207,0.273,0.313,0.602,0.313,0.984
	c0,0.387-0.106,0.715-0.313,0.985l-9.578,13.234c-0.148,0.207-0.258,0.313-0.328,0.313c-0.062,0-0.121-0.078-0.172-0.235
	C313.977,198.161,313.953,197.984,313.953,197.777z"/>
<path fill="none" stroke="#000000" stroke-width="1.0147" stroke-linecap="round" stroke-dasharray="4.0589,4.0589" d="
	M699.145,184.734c0,29.512-59.742,53.438-133.434,53.438c-73.695,0-133.438-23.927-133.438-53.438
	c0-29.511,59.743-53.433,133.438-53.433C639.402,131.301,699.145,155.223,699.145,184.734z"/>
<path fill="none" stroke="#000000" stroke-width="1.6" stroke-linecap="round" d="M698.852,184.734
	c0,73.536-59.609,133.146-133.141,133.146c-73.535,0-133.145-59.609-133.145-133.146c0-73.531,59.61-133.14,133.145-133.14
	C639.242,51.594,698.852,111.203,698.852,184.734z"/>
<line fill="none" stroke="#000000" stroke-width="1.6" x1="565.496" y1="184.648" x2="565.496" y2="53.73"/>
<polygon fill-rule="evenodd" clip-rule="evenodd" points="565.496,60.133 568.695,63.332 565.496,52.133 562.293,63.332 "/>
<polygon fill="none" stroke="#000000" stroke-width="0.8" points="565.496,60.133 568.695,63.332 565.496,52.133 562.293,63.332 "/>
<polyline fill="none" stroke="#737373" stroke-width="1.6" points="609.133,122.422 609.133,226.667 566.305,185.457 "/>
<line fill="none" stroke="#737373" stroke-width="2.4" x1="566.305" y1="184.648" x2="608.324" y2="124.039"/>
<polygon fill-rule="evenodd" clip-rule="evenodd" fill="#737373" points="602.855,131.926 604.066,138.605 609.691,122.067 
	596.175,133.137 "/>
<polygon fill="none" stroke="#737373" stroke-width="1.2" points="602.855,131.925 604.066,138.605 609.691,122.067 
	596.175,133.137 "/>
<path d="M495.828,190.863c2.07-0.469,3.992-0.703,5.766-0.703h14.765l-0.515,2.297h-5.297l-2.469,11.625
	c-0.031,0.147-0.047,0.319-0.047,0.515c0,0.344,0.172,0.618,0.516,0.813c0.351,0.198,0.801,0.297,1.344,0.297
	c0.593,0,1.082-0.11,1.468-0.328c0.395-0.228,0.645-0.454,0.75-0.672l0.141-0.328h1.672c-0.305,1.086-0.922,1.949-1.86,2.593
	c-0.929,0.637-1.937,0.953-3.031,0.953c-0.98,0-1.804-0.265-2.469-0.796c-0.667-0.532-1-1.228-1-2.094
	c0-0.195,0.063-0.613,0.188-1.25l2.438-11.329h-5.329l-3.297,15.468h-2.359l3.281-15.468c-1.25,0-2.73,0.234-4.437,0.703
	L495.828,190.863z"/>
<path d="M438.426,363.458c0.207-0.914,0.328-1.427,0.359-1.532c0.039-0.113,0.211-0.332,0.516-0.656l14.703-16.328h-11.188
	l0.469-2.328h15.344l-0.344,1.548l-15.203,16.89h11.797l-0.516,2.407H438.426z"/>
<path d="M459.23,351.458v-2.345h2.329v2.345H459.23z M459.23,363.458v-2.345h2.329v2.345H459.23z"/>
<path d="M477.602,355.536c0-6.375,2.078-11.235,6.234-14.578h1.5c-0.961,0.897-1.68,1.655-2.156,2.28
	c-2.438,3.181-3.657,7.259-3.657,12.234c0,6.219,1.883,11.063,5.657,14.532c0.082,0.05,0.132,0.086,0.156,0.108h-1.5
	c-2.106-1.698-3.672-3.809-4.703-6.327C478.109,361.265,477.602,358.515,477.602,355.536z"/>
<path d="M492.93,351.786h9.172c0.164-1.113,0.25-2.039,0.25-2.781c0-3.125-1.086-4.688-3.25-4.688c-1.481,0-2.735,0.685-3.766,2.047
	C494.305,347.718,493.5,349.527,492.93,351.786z M492.148,357.004c0,0.647,0.036,1.211,0.11,1.687
	c0.082,0.481,0.226,0.978,0.437,1.484c0.207,0.512,0.535,0.907,0.985,1.188c0.457,0.273,1.023,0.406,1.703,0.406
	c0.801,0,1.547-0.222,2.234-0.672c0.688-0.445,1.25-0.972,1.688-1.578c0.445-0.613,0.851-1.347,1.218-2.203
	c0.375-0.862,0.645-1.586,0.813-2.172c0.176-0.594,0.332-1.203,0.469-1.828h-9.235C492.328,354.234,492.188,355.465,492.148,357.004
	z M490.227,357.036c0-1.478,0.207-3.052,0.625-4.72c0.414-1.676,1.003-3.266,1.765-4.766c0.758-1.5,1.742-2.738,2.953-3.718
	c1.219-0.978,2.524-1.47,3.922-1.47c0.957,0,1.774,0.22,2.453,0.656c0.688,0.431,1.176,1,1.469,1.719
	c0.301,0.72,0.508,1.423,0.625,2.109c0.125,0.68,0.188,1.403,0.188,2.172c0,2.188-0.368,4.387-1.094,6.594
	c-0.731,2.212-1.824,4.109-3.281,5.703c-1.461,1.586-3.09,2.375-4.891,2.375c-1.68,0-2.887-0.629-3.625-1.891
	C490.594,360.543,490.227,358.954,490.227,357.036z"/>
<polygon points="506.176,363.458 506.176,361.113 508.535,361.113 508.535,362.583 508.504,363.458 507.363,366.786 
	506.176,366.786 506.895,363.458 "/>
<path d="M522.191,362.083c0.438-0.063,0.899-0.164,1.391-0.313c0.488-0.156,1.078-0.44,1.766-0.858
	c0.695-0.427,1.304-0.931,1.828-1.517c0.519-0.594,0.969-1.406,1.344-2.437c0.382-1.039,0.578-2.211,0.578-3.517
	c0-1.905-0.664-2.858-1.985-2.858c-0.699,0-1.324,0.297-1.875,0.89c-0.554,0.594-0.968,1.328-1.25,2.203L522.191,362.083z
	 M514.395,357.816c0-0.894,0.253-2.098,0.765-3.608c0.508-1.508,1.395-3.146,2.656-4.907h2.188c-0.719,0.813-1.18,1.352-1.375,1.61
	c-0.844,1.147-1.496,2.344-1.953,3.594c-0.461,1.25-0.688,2.257-0.688,3.015c0,1.281,0.414,2.324,1.25,3.125
	c0.844,0.793,1.844,1.274,3,1.438c1.164-5.521,1.805-8.442,1.922-8.767c0.477-1.28,1.207-2.312,2.188-3.094
	c0.976-0.781,2-1.172,3.062-1.172c1.082,0,1.883,0.418,2.406,1.25c0.52,0.836,0.782,1.903,0.782,3.204
	c0,1.418-0.219,2.714-0.657,3.89c-0.429,1.168-0.964,2.11-1.609,2.828c-0.637,0.719-1.375,1.336-2.219,1.844
	c-0.836,0.513-1.593,0.884-2.281,1.109c-0.687,0.23-1.355,0.383-2,0.469l-1.016,4.828h-1.921l1.015-4.828
	c-1.699-0.25-3.043-0.894-4.031-1.937C514.887,360.656,514.395,359.359,514.395,357.816z"/>
<path d="M531.898,370.113c1.219-1.094,2.18-2.194,2.891-3.297c1.957-3.062,2.938-6.844,2.938-11.344
	c0-6.218-1.883-11.004-5.641-14.359c-0.106-0.082-0.168-0.133-0.188-0.155h1.5c2.102,1.679,3.672,3.772,4.704,6.28
	c1.031,2.513,1.546,5.259,1.546,8.234c0,2.782-0.484,5.465-1.453,8.047c-0.961,2.594-2.558,4.789-4.797,6.594H531.898z"/>
<path d="M555.16,356.144c-0.586,0-0.875-0.194-0.875-0.594c0-0.406,0.289-0.609,0.875-0.609h23.703
	c-2.281-1.862-3.684-4.164-4.203-6.905h1.203c0.719,3.522,2.797,6,6.234,7.437c0.082,0.024,0.133,0.043,0.156,0.063
	c-2.367,0.979-4.094,2.414-5.188,4.297c-0.563,0.961-0.965,2.026-1.203,3.203h-1.203c0.52-2.738,1.922-5.035,4.203-6.892H555.16z"/>
<path d="M586.902,355.536c0-6.375,2.078-11.235,6.234-14.578h1.5c-0.961,0.897-1.68,1.655-2.156,2.28
	c-2.438,3.181-3.656,7.259-3.656,12.234c0,6.219,1.883,11.063,5.656,14.532c0.082,0.05,0.133,0.086,0.156,0.108h-1.5
	c-2.105-1.698-3.672-3.809-4.703-6.327C587.41,361.265,586.902,358.515,586.902,355.536z"/>
<path d="M602.227,351.786h9.172c0.164-1.113,0.25-2.039,0.25-2.781c0-3.125-1.086-4.688-3.25-4.688c-1.48,0-2.734,0.685-3.766,2.047
	C603.602,347.718,602.797,349.527,602.227,351.786z M601.445,357.004c0,0.647,0.035,1.211,0.109,1.687
	c0.082,0.481,0.227,0.978,0.438,1.484c0.207,0.512,0.535,0.907,0.984,1.188c0.457,0.273,1.023,0.406,1.703,0.406
	c0.801,0,1.547-0.222,2.234-0.672c0.688-0.445,1.25-0.972,1.688-1.578c0.445-0.613,0.852-1.347,1.219-2.203
	c0.375-0.862,0.645-1.586,0.813-2.172c0.176-0.594,0.332-1.203,0.469-1.828h-9.234C601.625,354.234,601.484,355.465,601.445,357.004
	z M599.523,357.036c0-1.478,0.207-3.052,0.625-4.72c0.414-1.676,1.004-3.266,1.766-4.766c0.758-1.5,1.742-2.738,2.953-3.718
	c1.219-0.978,2.523-1.47,3.922-1.47c0.957,0,1.773,0.22,2.453,0.656c0.688,0.431,1.176,1,1.469,1.719
	c0.301,0.72,0.508,1.423,0.625,2.109c0.125,0.68,0.188,1.403,0.188,2.172c0,2.188-0.367,4.387-1.094,6.594
	c-0.73,2.212-1.824,4.109-3.281,5.703c-1.461,1.586-3.09,2.375-4.891,2.375c-1.68,0-2.887-0.629-3.625-1.891
	C599.891,360.543,599.523,358.954,599.523,357.036z"/>
<polygon points="615.473,363.458 615.473,361.113 617.832,361.113 617.832,362.583 617.801,363.458 616.66,366.786 615.473,366.786 
	616.191,363.458 "/>
<path d="M624.473,349.863c1.676-0.375,3.234-0.563,4.672-0.563h11.969l-0.406,1.86h-4.297l-2.016,9.422
	c-0.023,0.117-0.031,0.258-0.031,0.422c0,0.272,0.141,0.492,0.422,0.656c0.281,0.155,0.641,0.233,1.078,0.233
	c0.488,0,0.891-0.086,1.203-0.265c0.32-0.176,0.523-0.36,0.609-0.547l0.109-0.267h1.359c-0.242,0.888-0.742,1.59-1.5,2.109
	c-0.762,0.512-1.586,0.766-2.469,0.766c-0.793,0-1.461-0.215-2-0.641c-0.543-0.425-0.813-0.988-0.813-1.688
	c0-0.163,0.047-0.508,0.141-1.03l1.984-9.172h-4.313l-2.672,12.53h-1.922l2.672-12.53c-1.023,0-2.227,0.187-3.609,0.562
	L624.473,349.863z"/>
<path d="M641.23,355.536c0-0.521,0.344-0.781,1.031-0.781h6.047v-6.032c0-0.695,0.258-1.047,0.781-1.047c0.5,0,0.75,0.34,0.75,1.016
	v6.063h6.063c0.676,0,1.016,0.261,1.016,0.781c0,0.5-0.32,0.75-0.953,0.75h-6.125v6.062c0,0.7-0.262,1.047-0.781,1.047
	c-0.5,0-0.75-0.336-0.75-1.015v-6.094h-6.031C641.578,356.286,641.23,356.036,641.23,355.536z"/>
<path d="M669.254,362.083c0.438-0.063,0.898-0.164,1.391-0.313c0.488-0.156,1.078-0.44,1.766-0.858
	c0.695-0.427,1.305-0.931,1.828-1.517c0.52-0.594,0.969-1.406,1.344-2.437c0.383-1.039,0.578-2.211,0.578-3.517
	c0-1.905-0.664-2.858-1.984-2.858c-0.699,0-1.324,0.297-1.875,0.89c-0.555,0.594-0.969,1.328-1.25,2.203L669.254,362.083z
	 M661.457,357.816c0-0.894,0.254-2.098,0.766-3.608c0.508-1.508,1.395-3.146,2.656-4.907h2.188c-0.719,0.813-1.18,1.352-1.375,1.61
	c-0.844,1.147-1.496,2.344-1.953,3.594c-0.461,1.25-0.688,2.257-0.688,3.015c0,1.281,0.414,2.324,1.25,3.125
	c0.844,0.793,1.844,1.274,3,1.438c1.164-5.521,1.805-8.442,1.922-8.767c0.477-1.28,1.207-2.312,2.188-3.094
	c0.977-0.781,2-1.172,3.063-1.172c1.082,0,1.883,0.418,2.406,1.25c0.52,0.836,0.781,1.903,0.781,3.204
	c0,1.418-0.219,2.714-0.656,3.89c-0.43,1.168-0.965,2.11-1.609,2.828c-0.637,0.719-1.375,1.336-2.219,1.844
	c-0.836,0.513-1.594,0.884-2.281,1.109c-0.688,0.23-1.355,0.383-2,0.469l-1.016,4.828h-1.922l1.016-4.828
	c-1.699-0.25-3.043-0.894-4.031-1.937C661.949,360.656,661.457,359.359,661.457,357.816z"/>
<path d="M678.965,370.113c1.219-1.094,2.18-2.194,2.891-3.297c1.957-3.062,2.938-6.844,2.938-11.344
	c0-6.218-1.883-11.004-5.641-14.359c-0.105-0.082-0.168-0.133-0.188-0.155h1.5c2.102,1.679,3.672,3.772,4.703,6.28
	c1.031,2.513,1.547,5.259,1.547,8.234c0,2.782-0.484,5.465-1.453,8.047c-0.961,2.594-2.559,4.789-4.797,6.594H678.965z"/>
<line fill="none" stroke="#000000" stroke-width="1.6" x1="565.496" y1="185.074" x2="565.496" y2="315.992"/>
<polygon fill-rule="evenodd" clip-rule="evenodd" points="565.496,309.59 562.293,306.391 565.496,317.59 568.695,306.391 "/>
<polygon fill="none" stroke="#000000" stroke-width="0.8" points="565.496,309.59 562.293,306.391 565.496,317.59 568.695,306.391 
	"/>
<path fill="#FFFFFF" d="M426.539,29.84h107.363c3.149,0,5.684,2.535,5.684,5.683v30.59c0,3.148-2.535,5.68-5.684,5.68H426.539
	c-3.144,0-5.68-2.532-5.68-5.68v-30.59C420.859,32.375,423.395,29.84,426.539,29.84z"/>
<line fill="none" stroke="#000000" stroke-width="2.4" x1="566.09" y1="185.238" x2="537.965" y2="85.918"/>
<polygon fill-rule="evenodd" clip-rule="evenodd" points="540.582,95.157 546.508,98.469 537.312,83.609 537.269,101.082 "/>
<polygon fill="none" stroke="#000000" stroke-width="1.2" points="540.582,95.157 546.508,98.469 537.312,83.609 537.269,101.082 
	"/>
<polyline fill="none" stroke="#000000" stroke-width="1.6" points="538.828,85.25 538.828,152.324 566.305,185.457 "/>
<path fill="none" stroke="#000000" stroke-width="1.6" stroke-linecap="round" d="M580.391,198.547
	c-12.629,2.151-27.184,1.37-37.946-2.043c-10.761-3.411-16.007-8.902-13.675-14.316c2.332-5.418,11.871-9.891,24.859-11.661"/>
<polygon fill-rule="evenodd" clip-rule="evenodd" points="547.289,171.391 544.551,174.992 555.215,170.309 543.688,168.652 "/>
<polygon fill="none" stroke="#000000" stroke-width="0.8" points="547.289,171.391 544.551,174.992 555.215,170.309 
	543.688,168.652 "/>
<path fill="#FFFFFF" d="M591.414,69.437h107.363c3.148,0,5.68,2.535,5.68,5.684v30.59c0,3.148-2.531,5.679-5.68,5.679H591.414
	c-3.148,0-5.68-2.531-5.68-5.679v-30.59C585.734,71.972,588.266,69.437,591.414,69.437z"/>
<path fill="#737373" d="M615.578,89.664c0-6.375,2.078-11.235,6.234-14.578h1.5c-0.961,0.898-1.68,1.656-2.156,2.281
	c-2.438,3.18-3.656,7.258-3.656,12.234c0,6.219,1.883,11.063,5.656,14.531c0.082,0.051,0.133,0.086,0.156,0.11h-1.5
	c-2.105-1.699-3.672-3.809-4.703-6.328C616.086,95.394,615.578,92.644,615.578,89.664z"/>
<path fill="#737373" d="M630.906,85.914h9.172c0.164-1.114,0.25-2.039,0.25-2.782c0-3.125-1.086-4.687-3.25-4.687
	c-1.48,0-2.734,0.684-3.766,2.047C632.281,81.847,631.477,83.656,630.906,85.914z M630.125,91.132c0,0.649,0.035,1.211,0.109,1.688
	c0.082,0.48,0.227,0.977,0.438,1.484c0.207,0.512,0.535,0.907,0.984,1.188c0.457,0.273,1.023,0.406,1.703,0.406
	c0.801,0,1.547-0.223,2.234-0.672c0.688-0.445,1.25-0.972,1.688-1.578c0.445-0.613,0.852-1.348,1.219-2.203
	c0.375-0.863,0.645-1.586,0.813-2.172c0.176-0.594,0.332-1.203,0.469-1.828h-9.234C630.305,88.363,630.164,89.593,630.125,91.132z
	 M628.203,91.164c0-1.477,0.207-3.051,0.625-4.719c0.414-1.676,1.004-3.266,1.766-4.766c0.758-1.5,1.742-2.738,2.953-3.718
	c1.219-0.977,2.523-1.469,3.922-1.469c0.957,0,1.773,0.219,2.453,0.656c0.688,0.43,1.176,1,1.469,1.719
	c0.301,0.719,0.508,1.422,0.625,2.109c0.125,0.68,0.188,1.403,0.188,2.172c0,2.188-0.367,4.387-1.094,6.594
	c-0.73,2.211-1.824,4.109-3.281,5.703c-1.461,1.586-3.09,2.375-4.891,2.375c-1.68,0-2.887-0.629-3.625-1.891
	C628.57,94.672,628.203,93.082,628.203,91.164z"/>
<polygon fill="#737373" points="644.152,97.586 644.152,95.242 646.512,95.242 646.512,96.711 646.48,97.586 645.34,100.914 
	644.152,100.914 644.871,97.586 "/>
<path fill="#737373" d="M660.168,96.211c0.438-0.063,0.898-0.164,1.391-0.313c0.488-0.156,1.078-0.441,1.766-0.859
	c0.695-0.426,1.305-0.93,1.828-1.516c0.52-0.594,0.969-1.406,1.344-2.437c0.383-1.039,0.578-2.211,0.578-3.516
	c0-1.906-0.664-2.859-1.984-2.859c-0.699,0-1.324,0.296-1.875,0.89c-0.555,0.594-0.969,1.328-1.25,2.203L660.168,96.211z
	 M652.371,91.945c0-0.895,0.254-2.098,0.766-3.609c0.508-1.508,1.395-3.145,2.656-4.907h2.188c-0.719,0.813-1.18,1.352-1.375,1.61
	c-0.844,1.148-1.496,2.343-1.953,3.593c-0.461,1.25-0.688,2.258-0.688,3.016c0,1.281,0.414,2.324,1.25,3.125
	c0.844,0.793,1.844,1.274,3,1.438c1.164-5.52,1.805-8.442,1.922-8.766c0.477-1.281,1.207-2.313,2.188-3.094
	c0.977-0.781,2-1.172,3.063-1.172c1.082,0,1.883,0.418,2.406,1.25c0.52,0.836,0.781,1.903,0.781,3.203
	c0,1.418-0.219,2.715-0.656,3.891c-0.43,1.168-0.965,2.109-1.609,2.828c-0.637,0.719-1.375,1.336-2.219,1.844
	c-0.836,0.512-1.594,0.883-2.281,1.109c-0.688,0.231-1.355,0.383-2,0.469l-1.016,4.828h-1.922l1.016-4.828
	c-1.699-0.25-3.043-0.894-4.031-1.937C652.863,94.785,652.371,93.488,652.371,91.945z"/>
<path fill="#737373" d="M669.875,104.242c1.219-1.094,2.18-2.195,2.891-3.297c1.957-3.063,2.938-6.844,2.938-11.344
	c0-6.219-1.883-11.004-5.641-14.359c-0.105-0.082-0.168-0.133-0.188-0.156h1.5c2.102,1.679,3.672,3.773,4.703,6.281
	c1.031,2.512,1.547,5.258,1.547,8.234c0,2.781-0.484,5.465-1.453,8.047c-0.961,2.594-2.559,4.789-4.797,6.594H669.875z"/>
<path d="M432.137,51.679c0-6.375,2.078-11.234,6.234-14.578h1.5c-0.961,0.899-1.68,1.656-2.156,2.281
	c-2.438,3.18-3.656,7.258-3.656,12.235c0,6.219,1.882,11.062,5.656,14.531c0.082,0.051,0.133,0.086,0.156,0.109h-1.5
	c-2.105-1.699-3.672-3.808-4.703-6.328C432.645,57.41,432.137,54.66,432.137,51.679z"/>
<path d="M447.461,47.929h9.172c0.164-1.113,0.25-2.039,0.25-2.781c0-3.125-1.086-4.687-3.25-4.687c-1.481,0-2.735,0.683-3.766,2.046
	C448.836,43.863,448.031,45.672,447.461,47.929z M446.68,53.148c0,0.649,0.035,1.211,0.109,1.688
	c0.082,0.48,0.227,0.976,0.438,1.484c0.207,0.512,0.535,0.906,0.984,1.187c0.457,0.274,1.023,0.407,1.703,0.407
	c0.801,0,1.547-0.223,2.234-0.672c0.688-0.445,1.25-0.973,1.688-1.578c0.445-0.614,0.852-1.348,1.219-2.203
	c0.375-0.864,0.644-1.586,0.812-2.172c0.176-0.594,0.332-1.203,0.469-1.828h-9.234C446.859,50.379,446.719,51.609,446.68,53.148z
	 M444.758,53.179c0-1.476,0.207-3.05,0.625-4.718c0.414-1.676,1.004-3.266,1.765-4.766c0.758-1.5,1.743-2.738,2.954-3.719
	c1.218-0.976,2.523-1.469,3.921-1.469c0.957,0,1.774,0.219,2.454,0.657c0.687,0.429,1.175,1,1.468,1.718
	c0.301,0.719,0.508,1.422,0.625,2.11c0.125,0.68,0.188,1.402,0.188,2.172c0,2.187-0.367,4.386-1.094,6.593
	c-0.73,2.211-1.824,4.11-3.281,5.704c-1.461,1.586-3.09,2.375-4.891,2.375c-1.68,0-2.887-0.629-3.625-1.891
	C445.125,56.687,444.758,55.097,444.758,53.179z"/>
<polygon points="460.707,59.601 460.707,57.257 463.066,57.257 463.066,58.726 463.035,59.601 461.895,62.929 460.707,62.929 
	461.426,59.601 "/>
<path d="M469.707,46.007c1.676-0.375,3.234-0.562,4.672-0.562h11.969l-0.407,1.859h-4.296l-2.016,9.422
	c-0.024,0.117-0.031,0.258-0.031,0.422c0,0.274,0.14,0.492,0.422,0.656c0.281,0.157,0.64,0.235,1.078,0.235
	c0.488,0,0.89-0.086,1.203-0.266c0.32-0.176,0.523-0.359,0.609-0.547l0.11-0.265h1.359c-0.242,0.886-0.742,1.589-1.5,2.109
	c-0.762,0.512-1.586,0.766-2.469,0.766c-0.793,0-1.461-0.215-2-0.641c-0.543-0.426-0.812-0.988-0.812-1.688
	c0-0.164,0.047-0.507,0.14-1.031l1.985-9.172h-4.313l-2.672,12.532h-1.922l2.672-12.532c-1.023,0-2.226,0.188-3.609,0.563
	L469.707,46.007z"/>
<path d="M486.465,51.679c0-0.519,0.344-0.781,1.031-0.781h6.047v-6.031c0-0.695,0.258-1.047,0.781-1.047c0.5,0,0.75,0.34,0.75,1.016
	v6.062h6.063c0.675,0,1.015,0.262,1.015,0.781c0,0.5-0.32,0.75-0.953,0.75h-6.125v6.063c0,0.699-0.262,1.047-0.781,1.047
	c-0.5,0-0.75-0.336-0.75-1.016v-6.094h-6.031C486.812,52.429,486.465,52.179,486.465,51.679z"/>
<path d="M514.488,58.226c0.438-0.062,0.899-0.164,1.391-0.312c0.488-0.157,1.078-0.442,1.766-0.86
	c0.695-0.425,1.304-0.929,1.828-1.515c0.519-0.594,0.968-1.407,1.343-2.438c0.383-1.039,0.579-2.211,0.579-3.515
	c0-1.907-0.665-2.86-1.985-2.86c-0.699,0-1.324,0.297-1.875,0.891c-0.555,0.594-0.969,1.328-1.25,2.203L514.488,58.226z
	 M506.691,53.961c0-0.895,0.254-2.098,0.766-3.61c0.508-1.508,1.395-3.144,2.656-4.906h2.188c-0.719,0.812-1.18,1.352-1.375,1.609
	c-0.844,1.149-1.496,2.344-1.953,3.594c-0.461,1.25-0.688,2.258-0.688,3.016c0,1.281,0.414,2.324,1.25,3.125
	c0.844,0.793,1.844,1.273,3,1.437c1.164-5.519,1.805-8.441,1.922-8.765c0.477-1.282,1.207-2.313,2.188-3.094
	c0.976-0.781,2-1.172,3.062-1.172c1.082,0,1.883,0.418,2.406,1.25c0.52,0.836,0.782,1.902,0.782,3.203
	c0,1.418-0.219,2.715-0.657,3.891c-0.429,1.168-0.965,2.109-1.609,2.828c-0.637,0.719-1.375,1.336-2.219,1.844
	c-0.836,0.511-1.594,0.882-2.281,1.109c-0.688,0.23-1.356,0.383-2,0.469l-1.016,4.828h-1.922l1.016-4.828
	c-1.699-0.25-3.043-0.895-4.031-1.938C507.184,56.8,506.691,55.504,506.691,53.961z"/>
<path d="M524.199,66.257c1.219-1.093,2.18-2.195,2.891-3.296c1.957-3.063,2.937-6.844,2.937-11.344c0-6.219-1.882-11.004-5.64-14.36
	c-0.106-0.082-0.168-0.132-0.188-0.156h1.5c2.102,1.68,3.672,3.774,4.703,6.281c1.032,2.512,1.547,5.258,1.547,8.235
	c0,2.781-0.484,5.465-1.453,8.047c-0.961,2.593-2.558,4.789-4.797,6.593H524.199z"/>
<line fill="none" stroke="#000000" stroke-width="1.2" x1="550.438" y1="349" x2="550.438" y2="362.738"/>
<line fill="none" stroke="#000000" stroke-width="1.2" x1="563.59" y1="355.5" x2="549.852" y2="355.5"/>
<path d="M78.863,368.441V341.05c0-0.582,0.196-0.875,0.594-0.875c0.406,0,0.609,0.293,0.609,0.875v27.391
	c0,0.552-0.203,0.828-0.609,0.828C79.059,369.269,78.863,368.993,78.863,368.441z"/>
<path d="M86.754,356.161c0-1.113,0.219-2.367,0.656-3.767c0.445-1.406,0.988-2.707,1.625-3.906h1.953
	c-1.761,2.656-2.64,5.105-2.64,7.345c0,1.418,0.367,2.625,1.109,3.625c0.738,1,1.738,1.604,3,1.812l4.141-19.469h1.734l-4.141,19.5
	c1.582-0.32,2.961-1.046,4.141-2.171c2.082-2,3.125-4.586,3.125-7.767c0-0.758-0.121-1.719-0.359-2.875h1.953
	c0.062,1.043,0.094,1.609,0.094,1.703c0,3.181-0.743,5.859-2.219,8.047c-0.844,1.242-1.883,2.273-3.11,3.095
	c-1.23,0.812-2.546,1.312-3.953,1.5l-1.015,4.828h-1.735l1.016-4.828c-1.656-0.207-2.969-0.927-3.938-2.157
	C87.23,359.45,86.754,357.941,86.754,356.161z"/>
<path d="M105.695,368.304c0-0.386,0.098-0.714,0.297-0.984l9.281-12.78c-0.179-0.207-0.421-0.532-0.734-0.97
	c-0.305-0.438-0.492-0.694-0.562-0.78l-7.985-10.985c-0.199-0.238-0.297-0.566-0.297-0.984c0-0.219,0.024-0.397,0.078-0.547
	c0.051-0.144,0.11-0.219,0.172-0.219c0.094,0,0.203,0.09,0.328,0.266l9.579,13.234c0.207,0.274,0.312,0.602,0.312,0.985
	c0,0.386-0.105,0.715-0.312,0.983l-9.579,13.234c-0.148,0.208-0.257,0.313-0.328,0.313c-0.062,0-0.121-0.077-0.172-0.233
	C105.719,368.687,105.695,368.511,105.695,368.304z"/>
<path d="M126.078,356.254c-0.617,0-0.922-0.211-0.922-0.642c0-0.426,0.305-0.641,0.922-0.641h25.281
	c-2.429-1.976-3.921-4.429-4.484-7.359h1.281c0.77,3.763,2.989,6.406,6.656,7.938c0.094,0.024,0.149,0.043,0.172,0.063
	c-2.523,1.056-4.371,2.578-5.546,4.578c-0.594,1.024-1.024,2.164-1.282,3.422h-1.281c0.563-2.913,2.055-5.366,4.484-7.358H126.078z"
	/>
<path d="M159.797,355.613c0-6.801,2.219-11.983,6.656-15.547h1.609c-1.031,0.961-1.804,1.774-2.312,2.438
	c-2.605,3.386-3.906,7.733-3.906,13.046c0,6.637,2.019,11.797,6.063,15.485c0.082,0.069,0.133,0.116,0.156,0.14h-1.609
	c-2.242-1.813-3.914-4.07-5.015-6.765C160.344,361.722,159.797,358.793,159.797,355.613z"/>
<path d="M176.094,351.613h9.797c0.164-1.188,0.25-2.176,0.25-2.969c0-3.332-1.153-5-3.453-5c-1.575,0-2.915,0.731-4.016,2.188
	C177.578,347.281,176.719,349.208,176.094,351.613z M175.266,357.191c0,0.681,0.039,1.277,0.125,1.797
	c0.082,0.513,0.234,1.039,0.453,1.578c0.226,0.543,0.582,0.965,1.063,1.267c0.489,0.293,1.094,0.437,1.813,0.437
	c0.851,0,1.644-0.238,2.375-0.719c0.738-0.476,1.344-1.039,1.813-1.688c0.469-0.655,0.899-1.44,1.297-2.358
	c0.395-0.914,0.68-1.688,0.859-2.313c0.188-0.633,0.352-1.28,0.5-1.937h-9.843C175.457,354.234,175.305,355.547,175.266,357.191z
	 M173.219,357.222c0-1.582,0.222-3.265,0.672-5.047c0.445-1.781,1.078-3.468,1.89-5.063c0.813-1.602,1.86-2.926,3.141-3.969
	c1.289-1.051,2.687-1.578,4.187-1.578c1.02,0,1.891,0.231,2.61,0.688c0.726,0.461,1.254,1.074,1.578,1.843
	c0.32,0.774,0.547,1.524,0.672,2.25c0.125,0.719,0.188,1.496,0.188,2.328c0,2.325-0.39,4.668-1.172,7.032
	c-0.773,2.354-1.937,4.383-3.5,6.078c-1.554,1.687-3.293,2.53-5.218,2.53c-1.793,0-3.086-0.672-3.875-2.016
	C173.609,360.958,173.219,359.265,173.219,357.222z"/>
<polygon points="190.156,364.066 190.156,361.566 192.688,361.566 192.688,363.144 192.656,364.066 191.438,367.613 
	190.156,367.613 190.922,364.066 "/>
<path d="M207.219,362.597c0.469-0.062,0.961-0.172,1.484-0.328c0.52-0.164,1.145-0.472,1.875-0.922
	c0.738-0.445,1.383-0.984,1.938-1.609c0.562-0.633,1.046-1.504,1.453-2.608c0.406-1.114,0.609-2.364,0.609-3.75
	c0-2.032-0.703-3.047-2.109-3.047c-0.75,0-1.422,0.319-2.016,0.953c-0.586,0.625-1.023,1.405-1.312,2.344L207.219,362.597z
	 M198.891,358.05c0-0.957,0.269-2.238,0.812-3.843c0.551-1.614,1.5-3.364,2.844-5.25h2.328c-0.773,0.875-1.262,1.453-1.469,1.733
	c-0.898,1.22-1.59,2.496-2.078,3.828c-0.492,1.336-0.734,2.403-0.734,3.203c0,1.375,0.445,2.493,1.344,3.344
	c0.894,0.845,1.96,1.356,3.203,1.531c1.226-5.882,1.91-9,2.047-9.343c0.507-1.364,1.285-2.461,2.328-3.297
	c1.05-0.832,2.14-1.25,3.265-1.25c1.157,0,2.008,0.444,2.563,1.328c0.551,0.887,0.828,2.022,0.828,3.405
	c0,1.513-0.231,2.892-0.688,4.142c-0.461,1.25-1.031,2.261-1.718,3.03c-0.68,0.773-1.465,1.431-2.36,1.97
	c-0.898,0.543-1.715,0.937-2.453,1.187c-0.73,0.242-1.437,0.399-2.125,0.485l-1.094,5.156h-2.046l1.093-5.156
	c-1.813-0.25-3.25-0.93-4.313-2.047C199.414,361.083,198.891,359.7,198.891,358.05z"/>
<path d="M217.5,371.175c1.301-1.179,2.32-2.355,3.062-3.531c2.094-3.262,3.141-7.289,3.141-12.094
	c0-6.632-2.008-11.742-6.015-15.328c-0.106-0.082-0.168-0.132-0.188-0.156h1.594c2.238,1.793,3.906,4.027,5,6.703
	c1.101,2.681,1.656,5.606,1.656,8.781c0,2.969-0.512,5.836-1.531,8.594c-1.024,2.758-2.731,5.103-5.125,7.031H217.5z"/>
<line fill="none" stroke="#000000" stroke-width="1.2" x1="124.762" y1="349" x2="124.762" y2="362.738"/>
<line fill="none" stroke="#000000" stroke-width="1.4004" stroke-dasharray="2.8008,2.8008" x1="897.922" y1="29.359" x2="1078.992" y2="29.359"/>
<path fill="none" stroke="#000000" stroke-width="1.4004" stroke-linecap="round" d="M935.203,66.867
	c0,20.871-16.918,37.789-37.785,37.789c-20.871,0-37.789-16.918-37.789-37.789c0-20.867,16.918-37.785,37.789-37.785
	C918.285,29.082,935.203,46,935.203,66.867z"/>
<path d="M904.648,29.383c0,3.992-3.238,7.23-7.23,7.23c-3.996,0-7.234-3.238-7.234-7.23c0-3.996,3.238-7.235,7.234-7.235
	C901.41,22.148,904.648,25.387,904.648,29.383z"/>
<path fill="none" stroke="#000000" stroke-width="0.268" stroke-linecap="round" d="M904.648,29.383c0,3.992-3.238,7.23-7.23,7.23
	c-3.996,0-7.234-3.238-7.234-7.23c0-3.996,3.238-7.235,7.234-7.235C901.41,22.148,904.648,25.387,904.648,29.383z"/>
<path fill="#FFFFFF" d="M1085.012,29.383c0,3.992-3.238,7.23-7.234,7.23c-3.992,0-7.23-3.238-7.23-7.23
	c0-3.996,3.238-7.235,7.23-7.235C1081.773,22.148,1085.012,25.387,1085.012,29.383z"/>
<path fill="none" stroke="#000000" stroke-width="1.4004" stroke-linecap="round" d="M1085.012,29.383
	c0,3.992-3.238,7.23-7.234,7.23c-3.992,0-7.23-3.238-7.23-7.23c0-3.996,3.238-7.235,7.23-7.235
	C1081.773,22.148,1085.012,25.387,1085.012,29.383z"/>
<line fill="none" stroke="#000000" stroke-width="1.4004" stroke-dasharray="2.8008,2.8008" x1="897.922" y1="104.332" x2="1078.992" y2="104.332"/>
<path d="M904.648,104.355c0,3.997-3.238,7.231-7.23,7.231c-3.996,0-7.234-3.234-7.234-7.231c0-3.996,3.238-7.234,7.234-7.234
	C901.41,97.121,904.648,100.359,904.648,104.355z"/>
<path fill="none" stroke="#000000" stroke-width="0.268" stroke-linecap="round" d="M904.648,104.355
	c0,3.997-3.238,7.231-7.23,7.231c-3.996,0-7.234-3.234-7.234-7.231c0-3.996,3.238-7.234,7.234-7.234
	C901.41,97.121,904.648,100.359,904.648,104.355z"/>
<path fill="#FFFFFF" d="M1085.012,104.355c0,3.997-3.238,7.231-7.234,7.231c-3.992,0-7.23-3.234-7.23-7.231
	c0-3.996,3.238-7.234,7.23-7.234C1081.773,97.121,1085.012,100.359,1085.012,104.355z"/>
<path fill="none" stroke="#000000" stroke-width="1.4004" stroke-linecap="round" d="M1085.012,104.355
	c0,3.997-3.238,7.231-7.234,7.231c-3.992,0-7.23-3.234-7.23-7.231c0-3.996,3.238-7.234,7.23-7.234
	C1081.773,97.121,1085.012,100.359,1085.012,104.355z"/>
<line fill="none" stroke="#000000" stroke-width="1.4004" stroke-dasharray="2.8008,2.8008" x1="902.77" y1="151.621" x2="1078.992" y2="228.391"/>
<circle fill="none" stroke="#000000" stroke-width="1.4004" stroke-linecap="round" cx="897.416" cy="189.938" r="37.787"/>
<path d="M904.648,152.453c0,3.992-3.238,7.231-7.23,7.231c-3.996,0-7.234-3.239-7.234-7.231c0-3.996,3.238-7.234,7.234-7.234
	C901.41,145.219,904.648,148.457,904.648,152.453z"/>
<path fill="none" stroke="#000000" stroke-width="0.268" stroke-linecap="round" d="M904.648,152.453
	c0,3.992-3.238,7.231-7.23,7.231c-3.996,0-7.234-3.239-7.234-7.231c0-3.996,3.238-7.234,7.234-7.234
	C901.41,145.219,904.648,148.457,904.648,152.453z"/>
<path fill="#FFFFFF" d="M988.355,182.285h8.035c3.148,0,5.68,2.535,5.68,5.68v6.417c0,3.148-2.531,5.68-5.68,5.68h-8.035
	c-3.145,0-5.68-2.531-5.68-5.68v-6.417C982.676,184.82,985.211,182.285,988.355,182.285z"/>
<line fill="none" stroke="#000000" stroke-width="1.4004" stroke-dasharray="2.8008,2.8008" x1="901.965" y1="229.02" x2="1078.992" y2="153.055"/>
<circle fill="#FFFFFF" cx="1077.779" cy="152.453" r="7.232"/>
<circle fill="none" stroke="#000000" stroke-width="1.4004" stroke-linecap="round" cx="1077.779" cy="152.453" r="7.232"/>
<circle cx="897.416" cy="227.426" r="7.232"/>
<circle fill="none" stroke="#000000" stroke-width="0.268" stroke-linecap="round" cx="897.416" cy="227.426" r="7.232"/>
<circle fill="#FFFFFF" cx="1077.779" cy="227.426" r="7.232"/>
<circle fill="none" stroke="#000000" stroke-width="1.4004" stroke-linecap="round" cx="1077.779" cy="227.426" r="7.232"/>
<line fill="none" stroke="#000000" stroke-width="1.4004" stroke-dasharray="2.8008,2.8008" x1="902.77" y1="350.188" x2="1078.992" y2="273.414"/>
<path fill="none" stroke="#000000" stroke-width="1.4004" stroke-linecap="round" d="M935.203,311.867
	c0-20.867-16.918-37.785-37.785-37.785c-20.871,0-37.789,16.918-37.789,37.785c0,20.871,16.918,37.789,37.789,37.789
	C918.285,349.656,935.203,332.738,935.203,311.867z"/>
<circle cx="897.416" cy="349.355" r="7.232"/>
<circle fill="none" stroke="#000000" stroke-width="0.268" stroke-linecap="round" cx="897.416" cy="349.355" r="7.232"/>
<path fill="#FFFFFF" d="M988.355,319.523h8.035c3.148,0,5.68-2.535,5.68-5.683v-6.415c0-3.148-2.531-5.683-5.68-5.683h-8.035
	c-3.145,0-5.68,2.534-5.68,5.683v6.415C982.676,316.988,985.211,319.523,988.355,319.523z"/>
<line fill="none" stroke="#000000" stroke-width="1.4004" stroke-dasharray="2.8008,2.8008" x1="901.965" y1="272.789" x2="1078.992" y2="348.75"/>
<path fill="#FFFFFF" d="M1085.012,349.355c0-3.996-3.238-7.234-7.234-7.234c-3.992,0-7.23,3.238-7.23,7.234
	c0,3.997,3.238,7.23,7.23,7.23C1081.773,356.585,1085.012,353.352,1085.012,349.355z"/>
<path fill="none" stroke="#000000" stroke-width="1.4004" stroke-linecap="round" d="M1085.012,349.355
	c0-3.996-3.238-7.234-7.234-7.234c-3.992,0-7.23,3.238-7.23,7.234c0,3.997,3.238,7.23,7.23,7.23
	C1081.773,356.585,1085.012,353.352,1085.012,349.355z"/>
<path d="M904.648,274.383c0-3.996-3.238-7.235-7.23-7.235c-3.996,0-7.234,3.239-7.234,7.235c0,3.991,3.238,7.229,7.234,7.229
	C901.41,281.613,904.648,278.375,904.648,274.383z"/>
<path fill="none" stroke="#000000" stroke-width="0.268" stroke-linecap="round" d="M904.648,274.383
	c0-3.996-3.238-7.235-7.23-7.235c-3.996,0-7.234,3.239-7.234,7.235c0,3.991,3.238,7.229,7.234,7.229
	C901.41,281.613,904.648,278.375,904.648,274.383z"/>
<path fill="#FFFFFF" d="M1085.012,274.383c0-3.996-3.238-7.235-7.234-7.235c-3.992,0-7.23,3.239-7.23,7.235
	c0,3.991,3.238,7.229,7.23,7.229C1081.773,281.613,1085.012,278.375,1085.012,274.383z"/>
<path fill="none" stroke="#000000" stroke-width="1.4004" stroke-linecap="round" d="M1085.012,274.383
	c0-3.996-3.238-7.235-7.234-7.235c-3.992,0-7.23,3.239-7.23,7.235c0,3.991,3.238,7.229,7.23,7.229
	C1081.773,281.613,1085.012,278.375,1085.012,274.383z"/>
<path d="M876.973,180.179h3.719l4.438,9.625l8.547-9.625h3.359l-10.672,12c-0.324,0.336-0.516,0.653-0.578,0.953l-1.672,7.891
	h-3.094l1.719-7.922c0.02-0.094,0.031-0.203,0.031-0.328c0-0.156-0.063-0.351-0.188-0.594L876.973,180.179z"/>
<polygon points="893.25,201.023 903.453,189.976 898.109,180.179 901.859,180.179 905.578,187.461 912.203,180.179 915.719,180.179 
	906.625,189.976 912.594,201.023 908.875,201.023 904.563,192.257 896.781,201.023 "/>
<polygon points="872.895,320.625 883.098,309.579 877.754,299.781 881.504,299.781 885.223,307.062 891.848,299.781 
	895.363,299.781 886.27,309.579 892.238,320.625 888.52,320.625 884.207,311.859 876.426,320.625 "/>
<path d="M897.328,299.781h3.719l4.438,9.625l8.547-9.625h3.359l-10.672,12c-0.324,0.337-0.516,0.652-0.578,0.953l-1.672,7.892
	h-3.094l1.719-7.922c0.02-0.095,0.031-0.203,0.031-0.328c0-0.157-0.063-0.353-0.188-0.595L897.328,299.781z"/>
<path d="M809.133,77.57V50.179c0-0.582,0.195-0.875,0.594-0.875c0.406,0,0.609,0.293,0.609,0.875V77.57
	c0,0.551-0.203,0.828-0.609,0.828C809.328,78.398,809.133,78.121,809.133,77.57z"/>
<path d="M817.633,60.461c0,0.125,0.004,0.261,0.016,0.406c0.008,0.148,0.016,0.23,0.016,0.25v0.578c0,1.156,0.008,2.094,0.031,2.812
	c0.031,0.719,0.156,1.559,0.375,2.516c0.227,0.949,0.539,1.695,0.938,2.234c0.781,1,1.781,1.5,3,1.5
	c1.281,0,2.301-0.531,3.063-1.593c0.375-0.539,0.664-1.289,0.875-2.25c0.219-0.957,0.336-1.785,0.359-2.485
	c0.031-0.707,0.047-1.64,0.047-2.797v-0.515c0-0.02,0.004-0.098,0.016-0.235c0.008-0.132,0.016-0.265,0.016-0.39
	c0-2.801-0.43-4.758-1.281-5.875c-0.742-1-1.773-1.5-3.094-1.5c-1.367,0-2.418,0.531-3.156,1.594
	C818.039,55.89,817.633,57.804,817.633,60.461z M815.711,62.476v-0.484c0-0.633,0.008-1.18,0.031-1.641
	c0.02-0.469,0.066-1.086,0.141-1.859c0.082-0.77,0.223-1.445,0.422-2.031c0.195-0.594,0.445-1.204,0.75-1.829
	c0.301-0.632,0.707-1.179,1.219-1.64c0.508-0.457,1.102-0.805,1.781-1.047c0.582-0.219,1.234-0.328,1.953-0.328
	c0.563,0,1.109,0.074,1.641,0.219c0.531,0.136,1.082,0.421,1.656,0.859c0.582,0.437,1.086,1.008,1.516,1.703
	c0.426,0.688,0.781,1.633,1.063,2.828c0.281,1.199,0.422,2.59,0.422,4.172c0,1.656-0.063,3.012-0.188,4.063
	c-0.117,1.054-0.391,2.089-0.828,3.109c-0.586,1.355-1.359,2.312-2.328,2.875c-0.969,0.562-1.953,0.844-2.953,0.844
	c-0.563,0-1.109-0.074-1.641-0.219c-0.523-0.137-1.074-0.422-1.656-0.859c-0.586-0.446-1.09-1.016-1.516-1.704
	c-0.43-0.687-0.781-1.632-1.063-2.843C815.852,65.445,815.711,64.05,815.711,62.476z"/>
<path d="M831.164,77.433c0-0.386,0.098-0.715,0.297-0.984l9.281-12.781c-0.18-0.207-0.422-0.532-0.734-0.969
	c-0.305-0.438-0.492-0.695-0.563-0.781l-7.984-10.985c-0.199-0.238-0.297-0.566-0.297-0.984c0-0.219,0.023-0.399,0.078-0.547
	c0.051-0.145,0.109-0.219,0.172-0.219c0.094,0,0.203,0.09,0.328,0.266l9.578,13.234c0.207,0.274,0.313,0.602,0.313,0.985
	c0,0.386-0.105,0.714-0.313,0.984l-9.578,13.234c-0.148,0.207-0.258,0.313-0.328,0.313c-0.063,0-0.121-0.078-0.172-0.234
	C831.188,77.816,831.164,77.64,831.164,77.433z"/>
<path d="M809.133,40.332V12.941c0-0.582,0.195-0.875,0.594-0.875c0.406,0,0.609,0.293,0.609,0.875v27.391
	c0,0.55-0.203,0.828-0.609,0.828C809.328,41.16,809.133,40.882,809.133,40.332z"/>
<path d="M815.914,26.613c0-0.52,0.344-0.781,1.031-0.781h6.047V19.8c0-0.695,0.258-1.046,0.781-1.046c0.5,0,0.75,0.339,0.75,1.015
	v6.063h6.063c0.676,0,1.016,0.261,1.016,0.781c0,0.5-0.32,0.75-0.953,0.75h-6.125v6.062c0,0.7-0.262,1.047-0.781,1.047
	c-0.5,0-0.75-0.336-0.75-1.015v-6.094h-6.031C816.262,27.363,815.914,27.113,815.914,26.613z"/>
<path d="M832.766,40.191c0-0.387,0.098-0.715,0.297-0.984l9.281-12.782c-0.18-0.207-0.422-0.531-0.734-0.968
	c-0.305-0.438-0.492-0.696-0.563-0.782l-7.984-10.984c-0.199-0.238-0.297-0.566-0.297-0.984c0-0.219,0.023-0.399,0.078-0.547
	c0.051-0.145,0.109-0.219,0.172-0.219c0.094,0,0.203,0.09,0.328,0.266l9.578,13.234c0.207,0.274,0.313,0.602,0.313,0.984
	c0,0.387-0.105,0.715-0.313,0.985l-9.578,13.234c-0.148,0.207-0.258,0.313-0.328,0.313c-0.063,0-0.121-0.078-0.172-0.235
	C832.789,40.574,832.766,40.398,832.766,40.191z"/>
<path d="M809.133,113.902V86.511c0-0.582,0.195-0.875,0.594-0.875c0.406,0,0.609,0.293,0.609,0.875v27.391
	c0,0.551-0.203,0.828-0.609,0.828C809.328,114.73,809.133,114.453,809.133,113.902z"/>
<rect x="814.148" y="98.59" width="15.75" height="1.5"/>
<path d="M832.766,113.765c0-0.386,0.098-0.715,0.297-0.984L842.344,100c-0.18-0.207-0.422-0.532-0.734-0.969
	c-0.305-0.438-0.492-0.695-0.563-0.781l-7.984-10.985c-0.199-0.238-0.297-0.566-0.297-0.984c0-0.219,0.023-0.399,0.078-0.547
	c0.051-0.144,0.109-0.219,0.172-0.219c0.094,0,0.203,0.09,0.328,0.266l9.578,13.234c0.207,0.274,0.313,0.602,0.313,0.985
	c0,0.386-0.105,0.715-0.313,0.984l-9.578,13.234c-0.148,0.207-0.258,0.313-0.328,0.313c-0.063,0-0.121-0.078-0.172-0.234
	C832.789,114.148,832.766,113.972,832.766,113.765z"/>
<path d="M904.648,65.73c0,3.997-3.238,7.231-7.23,7.231c-3.996,0-7.234-3.234-7.234-7.231c0-3.996,3.238-7.234,7.234-7.234
	C901.41,58.496,904.648,61.734,904.648,65.73z"/>
<path fill="none" stroke="#000000" stroke-width="0.268" stroke-linecap="round" d="M904.648,65.73c0,3.997-3.238,7.231-7.23,7.231
	c-3.996,0-7.234-3.234-7.234-7.231c0-3.996,3.238-7.234,7.234-7.234C901.41,58.496,904.648,61.734,904.648,65.73z"/>
<text transform="matrix(1 0 0 1 257.9102 200.5435)" font-family="'MyriadPro-Regular'" font-size="19">x</text>
<text transform="matrix(1 0 0 1 130.1016 69.437)" font-family="'MyriadPro-Regular'" font-size="19">z</text>
</svg>
